<svg width="498" height="56" viewBox="0 0 498 56" fill="none" xmlns="http://www.w3.org/2000/svg">
<path d="M402.076 0.0295751V11.281H398.845C377.453 11.281 356.061 11.3612 334.674 11.2243C329.501 11.1913 325.876 12.8903 326.152 18.7426C326.459 25.2603 326.211 31.7968 326.227 38.324C326.238 42.1798 328.633 44.3792 332.986 44.3886C349.431 44.4169 365.883 44.4169 382.329 44.3886C386.768 44.3792 389.33 42.1043 389.416 38.2485C389.449 36.7712 389.416 35.2893 389.416 33.5761H351.449V22.3908H401.946C402.016 22.8297 402.183 23.3536 402.178 23.8727C402.097 29.7674 402.496 35.7046 401.768 41.538C400.787 49.4196 393.24 55.4654 384.222 55.5881C366.525 55.8335 348.811 55.876 331.114 55.5739C320.995 55.3993 313.309 47.7961 313.282 38.9045C313.26 31.7496 313.276 24.5901 313.282 17.4353C313.282 7.36847 321.297 0.185321 332.861 0.0531733C342.026 -0.0506567 351.195 0.0295751 360.365 0.0295751H402.081H402.076Z" fill="#080809"/>
<path d="M269.338 38.3853C273.685 44.1384 277.914 49.7405 282.429 55.7155C277.245 55.7155 272.531 55.7721 267.817 55.6494C267.164 55.6305 266.382 54.8424 265.923 54.2524C262.396 49.7028 258.976 45.0871 255.389 40.5705C254.834 39.8767 253.598 39.1923 252.671 39.1876C237.848 39.1027 223.026 39.1263 208.204 39.1357C207.767 39.1357 207.33 39.2159 206.602 39.2915V55.5975H193.942V0.142819C194.633 0.100343 195.167 0.0342686 195.695 0.0342686C218.064 0.029549 240.432 -0.00820701 262.8 0.0484275C272.828 0.0720253 280.562 5.18801 282.067 13.4755C282.855 17.8081 282.596 22.4427 281.776 26.7941C280.87 31.5844 277.126 35.0061 272.121 37.2196C271.258 37.6019 270.384 37.9511 269.332 38.39H269.338V38.3853ZM206.715 27.8796H259.337C268.642 27.8796 269.856 26.8083 269.845 18.6151C269.839 13.0744 267.806 11.2809 261.473 11.2809C244.235 11.2809 226.996 11.2809 209.752 11.2809H206.71V27.8796H206.715Z" fill="#080809"/>
<path d="M497.995 55.725C493.518 55.725 488.901 55.8005 484.607 55.6589C483.777 55.6306 482.703 54.9085 482.223 54.2431C479.062 49.8586 475.983 45.427 473.005 40.9434C472.142 39.6502 471.252 39.0745 469.44 39.0839C456.408 39.1641 443.377 39.15 430.34 39.0981C428.802 39.0933 427.912 39.5039 427.13 40.6744C424.142 45.1532 420.981 49.5424 417.993 54.0165C417.184 55.2247 416.337 55.8147 414.633 55.7628C410.598 55.6401 406.213 55.725 401.838 55.725C402.372 55.0407 402.782 54.4413 403.122 53.9457C414.099 37.904 425.097 21.8717 436.068 5.82526C438.641 2.06378 442.443 0.175959 447.39 0.0532508C449.72 -0.00338376 452.088 -0.0694578 454.385 0.194837C458.215 0.633755 461.398 2.28088 463.415 5.21172C474.812 21.7632 486.145 38.3476 497.499 54.9274C497.58 55.0501 497.714 55.2531 498 55.7297H497.995V55.725ZM463.922 27.7806C460.464 22.7354 457.25 18.0347 454.024 13.3388C451.942 10.3041 448.021 10.2994 445.944 13.3246C444.655 15.203 443.36 17.0861 442.071 18.9645C440.113 21.8245 438.161 24.6798 436.036 27.7806H463.927H463.922Z" fill="#080809"/>
<path d="M0 55.7258C5.58266 47.5751 10.8363 39.9106 16.0953 32.2413C22.007 23.6187 27.9834 15.0292 33.7926 6.35463C36.7269 1.97489 40.9664 -0.111149 46.6786 0.0445956C47.9299 0.0445956 49.1004 0.0351562 50.2979 0.0351562C54.764 0.0351562 58.7177 1.38967 61.4632 5.33993C73.0006 21.7262 84.2091 38.2918 95.5093 54.8008C95.6333 54.9848 95.6711 55.2161 95.8491 55.7164C91.2427 55.7164 86.7928 55.7824 82.359 55.6503C81.6362 55.6267 80.7301 54.8244 80.277 54.1825C77.0946 49.7131 73.9662 45.2201 70.9294 40.6752C70.1473 39.5047 69.2627 39.0894 67.7308 39.0988C54.6075 39.146 41.4843 39.1555 28.361 39.0894C26.759 39.08 25.9607 39.6133 25.2002 40.746C22.1472 45.2814 19.0566 49.8028 15.8148 54.2344C15.2754 54.9707 13.927 55.6173 12.9237 55.6597C8.81898 55.8202 4.70346 55.7258 0 55.7258ZM62.0241 27.7672C58.5828 22.7456 55.2926 18.0874 52.1965 13.3348C51.1824 11.7821 50.0713 11.1403 47.9839 11.211C46.1931 11.2724 45.0712 11.65 44.138 13.0705C40.9557 17.9317 37.6169 22.7126 34.1702 27.7672H62.0241Z" fill="#080809"/>
<path d="M95.8869 0.119141H108.832V37.8802C108.832 42.3072 111.189 44.3932 116.227 44.3979C132.317 44.4074 148.412 44.4074 164.502 44.3979C169.637 44.3979 172.021 42.2788 172.021 37.7245C172.032 26.0814 172.021 14.4382 172.021 2.79512V0.152177H184.88V2.51667C184.88 14.476 184.891 26.4306 184.88 38.3899C184.87 48.2349 176.995 55.5549 165.732 55.6729C148.833 55.8523 131.929 55.8523 115.03 55.6729C103.859 55.5549 95.9031 48.1641 95.8869 38.3475C95.86 25.6896 95.8815 13.0318 95.8815 0.119141H95.8869Z" fill="#080809"/>
<path d="M291.814 0.119141H304.22V55.6304H291.814V0.119141Z" fill="#080809"/>
</svg>
